PathFileType	4	(X/Y/Z)	E:\Qualisys_Data\Carbon_Farble_Plate\Data\Amateur_Runner\S1\T2\S1T2V12_c3d.trc
DataRate	CameraRate	NumFrames	NumMarkers	Units	OrigDataRate	OrigDataStartFrame	OrigNumFrames
200.000000	200.000000	4	39	mm	200.000000	234	312
Frame#	Time	LSHO			RSHO			LICST			RICST			LASIS			LHEEL			RASIS			LTROC			RTROC			SACR			LTH1			LSK4			LTH2			LTH3			RHM5			LSK2			LTH4			RTH1			LTOE			RTH2			RTH3			RTH4			LLEP			RLEP			LSK1			LSK3			RSK1			LHM5			RSK2			LFT1			RSK3			RSK4			LLME			RLME			RTOE			RHEEL			RFT1			RFT2			LFT2			
		X1	Y1	Z1	X2	Y2	Z2	X3	Y3	Z3	X4	Y4	Z4	X5	Y5	Z5	X6	Y6	Z6	X7	Y7	Z7	X8	Y8	Z8	X9	Y9	Z9	X10	Y10	Z10	X11	Y11	Z11	X12	Y12	Z12	X13	Y13	Z13	X14	Y14	Z14	X15	Y15	Z15	X16	Y16	Z16	X17	Y17	Z17	X18	Y18	Z18	X19	Y19	Z19	X20	Y20	Z20	X21	Y21	Z21	X22	Y22	Z22	X23	Y23	Z23	X24	Y24	Z24	X25	Y25	Z25	X26	Y26	Z26	X27	Y27	Z27	X28	Y28	Z28	X29	Y29	Z29	X30	Y30	Z30	X31	Y31	Z31	X32	Y32	Z32	X33	Y33	Z33	X34	Y34	Z34	X35	Y35	Z35	X36	Y36	Z36	X37	Y37	Z37	X38	Y38	Z38	X39	Y39	Z39	

235	1.17	1474.787231445312	1493.949462890625	-552.2258911132812	1510.133178710938	1503.817016601562	-233.0140380859375	1459.807495117188	1037.691528320312	-503.4619750976562	1471.395385742188	1047.50439453125	-206.0708160400391	1508.251098632812	999.9727783203124	-481.0918579101562	1529.714965820312	78.15892028808594	-390.1930847167969	1506.7001953125	997.5061645507812	-217.0131683349609	1406.16943359375	912.2003784179688	-522.2367553710938	1391.534545898438	915.808837890625	-178.9124450683594	1346.850219726562	1056.550170898438	-347.9266357421875	1571.918579101562	795.1732788085938	-496.9896545410156	1523.109619140625	230.2588653564453	-429.8263549804688	1497.151123046875	762.86083984375	-523.7792358398438	1603.389892578125	697.5740356445312	-478.6529541015625	968.68994140625	227.1164245605469	-207.3043060302734	1524.269653320312	326.2274475097656	-471.7604370117188	1524.070068359375	669.162841796875	-495.8209228515625	1499.228637695312	769.6585693359375	-211.3058013916016	1782.569091796875	95.7252197265625	-399.4917907714844	1426.153076171875	776.676025390625	-181.8153533935547	1487.2578125	669.3784790039062	-217.5061798095703	1410.31298828125	678.5048828125	-195.706787109375	1591.316650390625	535.2320556640625	-459.5387573242188	1398.674682617188	508.78564453125	-227.6474151611328	1608.65966796875	322.2890930175781	-462.6947937011719	1600.280029296875	221.9589996337891	-454.6205444335938	1229.013916015625	429.0618896484375	-211.66845703125	1717.8515625	53.59302139282227	-462.8580932617188	1198.47705078125	503.3522033691406	-229.7685241699219	1542.138793945312	50.9813117980957	-364.9873352050781	1137.59765625	388.289794921875	-223.6815338134766	1108.915893554688	459.7457580566406	-250.1501770019531	1575.423706054688	100.8323287963867	-444.4586486816406	1006.642456054688	371.0937194824219	-225.2498779296875	1002.832763671875	170.2366485595703	-278.4288330078125	958.4869384765624	419.3177795410156	-271.9052124023438	932.35546875	400.071533203125	-302.775146484375	930.2161254882812	409.36328125	-247.86181640625	1537.190307617188	45.81351852416992	-418.1671447753906
236	1.175	1492.382690429688	1488.117431640625	-553.4640502929688	1525.425170898438	1499.536499023438	-233.9340057373047	1474.598510742188	1033.447631835938	-503.9697570800781	1486.906860351562	1043.071044921875	-206.2101440429688	1524.512329101562	996.5494995117188	-481.2249450683594	1533.341796875	77.71810913085938	-391.756103515625	1522.402221679688	992.9276123046876	-217.4725189208984	1421.408935546875	907.595458984375	-522.5491943359375	1407.725219726562	910.6553344726562	-179.4193267822266	1361.985107421875	1051.918334960938	-347.7858276367188	1587.17578125	791.0410766601562	-497.3244323730469	1531.934204101562	226.9686126708984	-430.3589782714844	1512.743896484375	758.8312377929688	-524.3630981445312	1618.68310546875	693.1640625	-479.878173828125	991.0697021484376	230.2926330566406	-206.7864837646484	1535.265258789062	322.9920654296875	-471.8982849121094	1539.308715820312	664.8239135742188	-496.7712707519531	1518.271606445312	766.13671875	-210.3182525634766	1789.15966796875	82.79480743408203	-397.5367736816406	1444.666625976562	771.7080078125	-181.8615417480469	1508.123657226562	665.4558715820312	-215.7118072509766	1430.832885742188	673.2322998046875	-195.6667938232422	1605.732177734375	530.5501708984375	-460.1155700683594	1423.320678710938	504.5324096679688	-226.4011993408203	1619.80859375	316.8442993164062	-462.0125732421875	1608.056030273438	216.9701538085938	-453.9563903808594	1253.156982421875	426.9659118652344	-211.1627807617188	1723.6767578125	46.1152458190918	-463.2586669921875	1224.513671875	501.576416015625	-230.0837097167969	1543.91552734375	50.26534271240234	-365.2095031738281	1161.2880859375	388.0310363769531	-223.2666168212891	1134.126098632812	459.7278137207031	-250.5140380859375	1580.017211914062	98.29345703125	-446.0696716308594	1030.205444335938	373.0344543457031	-226.1369018554688	1025.360717773438	172.5395812988281	-277.4383544921875	982.4323120117188	421.9816284179688	-272.9757995605469	956.7833862304688	402.5835876464844	-303.7184448242188	953.986572265625	412.2183227539062	-249.2178344726562	1539.609252929688	45.13588333129883	-419.1827697753906
237	1.18	1510.508178710938	1482.518676757812	-554.7977294921875	1540.06787109375	1494.83740234375	-233.9072418212891	1488.763061523438	1029.098876953125	-504.2895202636719	1502.177856445312	1038.296142578125	-206.3062591552734	1541.34033203125	992.1278076171876	-481.2872924804688	1535.027709960938	77.08702087402344	-393.8949584960938	1538.088134765625	988.4779052734376	-217.7563934326172	1436.529296875	903.1585083007812	-522.7896728515625	1424.146362304688	905.0873413085938	-180.1623229980469	1377.22900390625	1046.975708007812	-348.2937927246094	1601.42431640625	785.6920776367188	-497.7513732910156	1540.385009765625	224.4475860595703	-430.5707702636719	1527.35546875	753.7880859375	-525.4927368164062	1632.993530273438	687.7064208984375	-481.5851440429688	1014.135620117188	232.9115447998047	-206.7932891845703	1547.29248046875	319.7254638671875	-471.796142578125	1553.49658203125	660.1032104492188	-498.5509948730469	1537.051147460938	762.442138671875	-209.6017913818359	1792.845336914062	78.50386810302734	-394.5373229980469	1462.978515625	766.6087646484375	-182.0330047607422	1529.533813476562	661.7333374023438	-214.5208892822266	1451.057495117188	667.7181396484375	-195.3039093017578	1620.57177734375	525.4435424804688	-460.6937561035156	1448.1611328125	499.9224853515625	-225.3089141845703	1631.203002929688	312.0048522949219	-461.607666015625	1616.315185546875	212.1139526367188	-453.4048461914062	1277.778930664062	424.93212890625	-210.9827117919922	1728.106201171875	47.09450912475586	-464.25146484375	1250.796508789062	499.8871154785156	-230.4682769775391	1544.737060546875	49.6136360168457	-366.6350708007812	1185.662353515625	387.5190124511719	-223.1232757568359	1159.844360351562	459.5203857421875	-251.0089263916016	1585.348876953125	95.2598876953125	-445.7917175292969	1054.21630859375	375.6712646484375	-226.6829681396484	1048.65576171875	174.4355773925781	-276.5264892578125	1007.098754882812	424.0056762695312	-274.2389526367188	981.4833374023438	405.0648498535156	-305.4005737304688	978.17822265625	414.7031860351562	-250.4532165527344	1540.723754882812	43.5853157043457	-419.820068359375
238	1.185	1528.227783203125	1476.562866210938	-556.0778198242188	1554.961791992188	1490.158447265625	-234.3375549316406	1504.219848632812	1024.802978515625	-505.0086059570312	1517.279541015625	1033.378173828125	-205.9885406494141	1550.281494140625	987.5283203125	-484.8576049804688	1536.231567382812	76.79518127441406	-393.5055541992188	1553.571044921875	984.1638793945312	-218.3516082763672	1451.637573242188	898.3311767578125	-523.3789672851562	1440.058959960938	899.7839965820312	-181.0386962890625	1392.167236328125	1042.337524414062	-348.2511596679688	1615.712768554688	780.0250244140625	-498.35400390625	1548.66845703125	222.8192596435547	-431.3424987792969	1541.496826171875	749.1397094726562	-527.4281616210938	1646.752685546875	681.8623046875	-484.3459777832031	1038.2265625	234.3684844970703	-206.9681396484375	1559.047119140625	317.8802185058594	-472.4211730957031	1565.49169921875	654.291015625	-501.9885559082031	1556.065185546875	759.0355834960938	-208.4602355957031	1791.060424804688	80.674560546875	-392.9886474609375	1481.350219726562	761.3462524414062	-182.4122619628906	1550.57568359375	657.8501586914062	-213.0146331787109	1471.781616210938	662.4872436523438	-195.8148193359375	1635.670654296875	520.6227416992188	-461.1444396972656	1473.422973632812	494.8196411132812	-224.8283386230469	1642.483032226562	307.4305419921875	-460.9716796875	1624.37060546875	207.9779968261719	-452.6010131835938	1303.28369140625	423.2113342285156	-209.8658905029297	1726.451782226562	48.80532836914062	-464.2955322265625	1277.391357421875	498.1466064453125	-230.9277648925781	1544.754760742188	49.06183624267578	-366.04541015625	1210.380004882812	386.2242126464844	-224.3931427001953	1186.09326171875	459.2730102539062	-251.2060241699219	1589.947265625	93.43157958984376	-443.9396362304688	1078.87451171875	377.1723327636719	-227.3298492431641	1072.989990234375	176.2740020751953	-275.502685546875	1031.941650390625	426.2821350097656	-275.6083374023438	1006.607177734375	406.6872253417969	-306.6115417480469	1003.0205078125	416.9803161621094	-251.6510314941406	1541.376098632812	43.42478179931641	-419.6014709472656
